<svg 
    xmlns="http://www.w3.org/2000/svg" 
    data-name="Layer 1" 
    viewBox="0 0 64 64">
<path d="M32,2A30,30,0,1,0,62,32,30.034,30.034,0,0,0,32,2Zm0,58A28,28,0,1,1,60,32,28.032,28.032,0,0,1,32,60Z"/>
<rect width="2" height="2" x="56" y="31"/>
<rect width="2" height="2" x="6" y="31"/>
<rect width="2.828" height="2" x="48.586" y="14" transform="rotate(-45 50 15)"/>
<rect width="2.828" height="2" x="13.586" y="49" transform="rotate(-45 15 50)"/>
<rect width="2.828" height="2" x="52.586" y="21" transform="rotate(-45 54 22)"/>
<rect width="2.828" height="2" x="8.586" y="42" transform="rotate(-45 10 43)"/>
<rect width="2" height="2.828" x="54" y="39.586" transform="rotate(-45 55 41)"/>
<rect width="2" height="2.828" x="9" y="20.586" transform="rotate(-45 10 22)"/>
<rect width="2" height="2.828" x="48" y="48.586" transform="rotate(-45 49 50)"/>
<rect width="2" height="2.828" x="13" y="13.586" transform="rotate(-45 14 15)"/>
<rect width="2" height="2.828" x="20" y="8.586" transform="rotate(-45 21 10)"/>
<rect width="2.828" height="2" x="41.586" y="9" transform="rotate(-45 43 10)"/>
<path d="M19.446,28.1a3.384,3.384,0,0,0-2.89-2.1,3.371,3.371,0,0,0-2.867,2.051A2.162,2.162,0,0,0,13.222,28C11.385,28,10,30.149,10,33h2c0-1.861.792-3,1.222-3a.571.571,0,0,1,.308.166,1,1,0,0,0,1.606-.432C15.487,28.7,16.057,28,16.556,28c.428,0,.934.545,1.288,1.389A1.018,1.018,0,0,0,18.8,30c.435.042,1.2,1.173,1.2,3h2C22,30.507,20.94,28.55,19.446,28.1Z"/>
<rect width="2" height="2" x="15" y="32"/>
<rect width="2" height="2" x="12" y="35"/>
<rect width="2" height="2" x="16" y="36"/>
<path d="M51,32a3,3,0,1,0-3,3A3,3,0,0,0,51,32Zm-4,0a1,1,0,1,1,1,1A1,1,0,0,1,47,32Z"/>
<rect width="2" height="2" x="47" y="26"/>
<rect width="2" height="2" x="47" y="36"/>
<rect width="2" height="2" x="52" y="31"/>
<rect width="2" height="2" x="42" y="31"/>
<rect width="2" height="2" x="50.536" y="27.464" transform="rotate(-45 51.535 28.464)"/>
<rect width="2" height="2" x="43.464" y="34.536" transform="rotate(-45 44.464 35.535)"/>
<rect width="2" height="2" x="50.536" y="34.536" transform="rotate(-45 51.535 35.535)"/>
<rect width="2" height="2" x="43.464" y="27.464" transform="rotate(-45 44.464 28.464)"/>
<rect width="2" height="1.953" x="31.642" y="11"/>
<rect width="1.953" height="2" x="36.547" y="15.858"/>
<rect width="1.953" height="2" x="35.117" y="12.406" transform="rotate(-45 36.094 13.406)"/>
<path d="M25.39 19.994l7.5.833.117-1.053a2.945 2.945 0 1 0-2.888-4.426A3.989 3.989 0 0 0 24.5 19 1 1 0 0 0 25.39 19.994zm7.252-4.089a.953.953 0 1 1-.953.953A.955.955 0 0 1 32.642 15.905zM28.5 17a1.931 1.931 0 0 1 1.254.465 2.92 2.92 0 0 0 .448 1.052l-3.5-.39A2 2 0 0 1 28.5 17zM45.707 19.707l-1.414-1.414L33.285 29.3A2.951 2.951 0 0 0 32 29a3 3 0 0 0-3 3 2.951 2.951 0 0 0 .3 1.285l-2.282 2.282A3.947 3.947 0 0 0 25 35a4 4 0 1 0 4 4 3.947 3.947 0 0 0-.567-2.019L30.715 34.7A2.951 2.951 0 0 0 32 35a3 3 0 0 0 3-3 2.951 2.951 0 0 0-.3-1.285zM25 41a2 2 0 1 1 2-2A2 2 0 0 1 25 41zm7-8a1 1 0 1 1 1-1A1 1 0 0 1 32 33z"/>
<rect width="2" height="3" x="31" y="6"/>
</svg>